<?xml version="1.0" encoding="UTF-8" standalone="no"?>
<svg
   xmlns:ooo="http://xml.openoffice.org/svg/export"
   xmlns:dc="http://purl.org/dc/elements/1.1/"
   xmlns:cc="http://creativecommons.org/ns#"
   xmlns:rdf="http://www.w3.org/1999/02/22-rdf-syntax-ns#"
   xmlns:svg="http://www.w3.org/2000/svg"
   xmlns="http://www.w3.org/2000/svg"
   xmlns:sodipodi="http://sodipodi.sourceforge.net/DTD/sodipodi-0.dtd"
   xmlns:inkscape="http://www.inkscape.org/namespaces/inkscape"
   version="1.2"
   width="810"
   height="1080"
   viewBox="0 0 21431.25 28575"
   preserveAspectRatio="xMidYMid"
   xml:space="preserve"
   id="svg119"
   sodipodi:docname="background_curve_tablette.svg"
   style="fill-rule:evenodd;stroke-width:28.22200012;stroke-linejoin:round"
   inkscape:version="0.92.5 (2060ec1f9f, 2020-04-08)"><metadata
   id="metadata123"><rdf:RDF><cc:Work
       rdf:about=""><dc:format>image/svg+xml</dc:format><dc:type
         rdf:resource="http://purl.org/dc/dcmitype/StillImage" /><dc:title></dc:title></cc:Work></rdf:RDF></metadata><sodipodi:namedview
   pagecolor="#ffffff"
   bordercolor="#666666"
   borderopacity="1"
   objecttolerance="10"
   gridtolerance="10"
   guidetolerance="10"
   inkscape:pageopacity="0"
   inkscape:pageshadow="2"
   inkscape:window-width="1280"
   inkscape:window-height="740"
   id="namedview121"
   showgrid="false"
   units="px"
   inkscape:zoom="0.33125"
   inkscape:cx="1280"
   inkscape:cy="679.24525"
   inkscape:window-x="0"
   inkscape:window-y="0"
   inkscape:window-maximized="1"
   inkscape:current-layer="svg119"
   inkscape:snap-page="true" />
 <defs
   class="ClipPathGroup"
   id="defs16">
  <clipPath
   id="presentation_clip_path"
   clipPathUnits="userSpaceOnUse">
   <rect
   x="0"
   y="0"
   width="28000"
   height="15750"
   id="rect10" />
  </clipPath>
  <clipPath
   id="presentation_clip_path_shrink"
   clipPathUnits="userSpaceOnUse">
   <rect
   x="28"
   y="15"
   width="27944"
   height="15719"
   id="rect13" />
  </clipPath>
 </defs>
 <defs
   class="TextShapeIndex"
   id="defs20">
  <g
   ooo:slide="id1"
   ooo:id-list="id3 id4"
   id="g18" />
 </defs>
 <defs
   class="EmbeddedBulletChars"
   id="defs52">
  <g
   id="bullet-char-template-57356"
   transform="matrix(4.8828125e-4,0,0,-4.8828125e-4,0,0)">
   <path
   d="M 580,1141 1163,571 580,0 -4,571 Z"
   id="path22"
   inkscape:connector-curvature="0" />
  </g>
  <g
   id="bullet-char-template-57354"
   transform="matrix(4.8828125e-4,0,0,-4.8828125e-4,0,0)">
   <path
   d="M 8,1128 H 1137 V 0 H 8 Z"
   id="path25"
   inkscape:connector-curvature="0" />
  </g>
  <g
   id="bullet-char-template-10146"
   transform="matrix(4.8828125e-4,0,0,-4.8828125e-4,0,0)">
   <path
   d="M 174,0 602,739 174,1481 1456,739 Z M 1358,739 309,1346 659,739 Z"
   id="path28"
   inkscape:connector-curvature="0" />
  </g>
  <g
   id="bullet-char-template-10132"
   transform="matrix(4.8828125e-4,0,0,-4.8828125e-4,0,0)">
   <path
   d="M 2015,739 1276,0 H 717 l 543,543 H 174 v 393 h 1086 l -543,545 h 557 z"
   id="path31"
   inkscape:connector-curvature="0" />
  </g>
  <g
   id="bullet-char-template-10007"
   transform="matrix(4.8828125e-4,0,0,-4.8828125e-4,0,0)">
   <path
   d="m 0,-2 c -7,16 -16,29 -25,39 l 381,530 c -94,256 -141,385 -141,387 0,25 13,38 40,38 9,0 21,-2 34,-5 21,4 42,12 65,25 l 27,-13 111,-251 280,301 64,-25 24,25 c 21,-10 41,-24 62,-43 C 886,937 835,863 770,784 769,783 710,716 594,584 L 774,223 c 0,-27 -21,-55 -63,-84 l 16,-20 C 717,90 699,76 672,76 641,76 570,178 457,381 L 164,-76 c -22,-34 -53,-51 -92,-51 -42,0 -63,17 -64,51 -7,9 -10,24 -10,44 0,9 1,19 2,30 z"
   id="path34"
   inkscape:connector-curvature="0" />
  </g>
  <g
   id="bullet-char-template-10004"
   transform="matrix(4.8828125e-4,0,0,-4.8828125e-4,0,0)">
   <path
   d="M 285,-33 C 182,-33 111,30 74,156 52,228 41,333 41,471 c 0,78 14,145 41,201 34,71 87,106 158,106 53,0 88,-31 106,-94 l 23,-176 c 8,-64 28,-97 59,-98 l 735,706 c 11,11 33,17 66,17 42,0 63,-15 63,-46 V 965 c 0,-36 -10,-64 -30,-84 L 442,47 C 390,-6 338,-33 285,-33 Z"
   id="path37"
   inkscape:connector-curvature="0" />
  </g>
  <g
   id="bullet-char-template-9679"
   transform="matrix(4.8828125e-4,0,0,-4.8828125e-4,0,0)">
   <path
   d="M 813,0 C 632,0 489,54 383,161 276,268 223,411 223,592 c 0,181 53,324 160,431 106,107 249,161 430,161 179,0 323,-54 432,-161 108,-107 162,-251 162,-431 0,-180 -54,-324 -162,-431 C 1136,54 992,0 813,0 Z"
   id="path40"
   inkscape:connector-curvature="0" />
  </g>
  <g
   id="bullet-char-template-8226"
   transform="matrix(4.8828125e-4,0,0,-4.8828125e-4,0,0)">
   <path
   d="m 346,457 c -73,0 -137,26 -191,78 -54,51 -81,114 -81,188 0,73 27,136 81,188 54,52 118,78 191,78 73,0 134,-26 185,-79 51,-51 77,-114 77,-187 0,-75 -25,-137 -76,-188 -50,-52 -112,-78 -186,-78 z"
   id="path43"
   inkscape:connector-curvature="0" />
  </g>
  <g
   id="bullet-char-template-8211"
   transform="matrix(4.8828125e-4,0,0,-4.8828125e-4,0,0)">
   <path
   d="M -4,459 H 1135 V 606 H -4 Z"
   id="path46"
   inkscape:connector-curvature="0" />
  </g>
  <g
   id="bullet-char-template-61548"
   transform="matrix(4.8828125e-4,0,0,-4.8828125e-4,0,0)">
   <path
   d="m 173,740 c 0,163 58,303 173,419 116,115 255,173 419,173 163,0 302,-58 418,-173 116,-116 174,-256 174,-419 0,-163 -58,-303 -174,-418 C 1067,206 928,148 765,148 601,148 462,206 346,322 231,437 173,577 173,740 Z"
   id="path49"
   inkscape:connector-curvature="0" />
  </g>
 </defs>
 <g
   id="g57"
   transform="translate(0,12825.001)">
  <g
   id="id2"
   class="Master_Slide">
   <g
   id="bg-id2"
   class="Background" />
   <g
   id="bo-id2"
   class="BackgroundObjects" />
  </g>
 </g>
 <g
   class="SlideGroup"
   id="g117"
   transform="matrix(0.76310213,0,-1.4756104e-6,0.86368473,64.413601,14971.966)">
  <g
   id="g115">
   <g
   id="container-id1">
    <g
   id="id1"
   class="Slide"
   clip-path="url(#presentation_clip_path)">
     <g
   class="Page"
   id="g111">
      <g
   class="com.sun.star.drawing.ClosedBezierShape"
   id="g73">
       <g
   id="id3">
        <rect
   class="BoundingBox"
   x="-1"
   y="7492"
   width="28002"
   height="8415"
   id="rect59"
   style="fill:none;stroke:none" />
        <g
   id="g70">
         <defs
   id="defs66">
          <linearGradient
   id="gradient1"
   x1="-113"
   y1="7919"
   x2="28113"
   y2="15483"
   gradientUnits="userSpaceOnUse">
           <stop
   offset="0"
   style="stop-color:rgb(0,0,205)"
   id="stop61" />
           <stop
   offset="1"
   style="stop-color:rgb(255,215,215)"
   id="stop63" />
          </linearGradient>
         </defs>
         <path
   style="fill:url(#gradient1)"
   d="m 2462,12269 161,18 165,-1 169,-19 174,-37 358,-120 373,-172 787,-464 835,-550 874,-556 450,-253 457,-224 463,-183 468,-133 472,-71 h 476 l 390,50 387,83 383,110 380,132 1503,644 750,319 755,260 382,95 384,66 389,29 393,-10 501,-72 486,-125 472,-171 462,-211 898,-510 879,-581 877,-595 892,-551 458,-241 467,-208 480,-169 494,-122 670,-113 679,-78 684,-39 686,7 683,59 676,116 665,180 328,115 323,134 v 7578 L 0,15906 v -5529 l 36,68 111,184 186,265 263,313 161,164 182,163 202,159 222,150 243,136 264,120 285,97 z"
   id="path68"
   inkscape:connector-curvature="0" />
        </g>
       </g>
      </g>
      <g
   class="com.sun.star.drawing.ClosedBezierShape"
   id="g109">
       <g
   id="id4">
        <rect
   class="BoundingBox"
   x="0"
   y="10293"
   width="28028"
   height="5710"
   id="rect75"
   style="fill:none;stroke:none" />
        <defs
   id="defs93">
         <mask
   id="mask1">
          <g
   id="g90">
           <defs
   id="defs86">
            <linearGradient
   id="gradient2"
   x1="14013"
   y1="10293"
   x2="14013"
   y2="16002"
   gradientUnits="userSpaceOnUse">
             <stop
   offset="0.5"
   style="stop-color:rgb(191,191,191)"
   id="stop77" />
             <stop
   offset="0.5"
   style="stop-color:rgb(191,191,191)"
   id="stop79" />
             <stop
   offset="1"
   style="stop-color:rgb(191,191,191)"
   id="stop81" />
             <stop
   offset="1"
   style="stop-color:rgb(191,191,191)"
   id="stop83" />
            </linearGradient>
           </defs>
           <path
   style="fill:url(#gradient2)"
   d="m 0,10293 h 28027 v 5709 H 0 Z"
   id="path88"
   inkscape:connector-curvature="0" />
          </g>
         </mask>
        </defs>
        <g
   mask="url(#mask1)"
   id="g106">
         <g
   id="g104">
          <defs
   id="defs100">
           <linearGradient
   id="gradient3"
   x1="5581"
   y1="4718"
   x2="22446"
   y2="21583"
   gradientUnits="userSpaceOnUse">
            <stop
   offset="0"
   style="stop-color:rgb(255,192,203)"
   id="stop95" />
            <stop
   offset="1"
   style="stop-color:rgb(3,3,194)"
   id="stop97" />
           </linearGradient>
          </defs>
          <path
   style="fill:url(#gradient3)"
   d="m 0,16002 v -3587 l 282,-290 313,-301 396,-351 450,-361 481,-330 244,-140 242,-118 236,-90 228,-56 224,-52 251,-27 577,13 666,95 741,164 1658,485 1804,616 3632,1231 1620,421 715,119 634,43 1099,-31 969,-94 887,-159 855,-224 869,-291 932,-360 2246,-930 722,-260 784,-224 797,-187 760,-151 1220,-199 493,-65 -27,5439 z"
   id="path102"
   inkscape:connector-curvature="0" />
         </g>
        </g>
       </g>
      </g>
     </g>
    </g>
   </g>
  </g>
 </g>
</svg>